<?xml version="1.0" standalone="no"?>
<!DOCTYPE svg PUBLIC "-//W3C//DTD SVG 20010904//EN"
 "http://www.w3.org/TR/2001/REC-SVG-20010904/DTD/svg10.dtd">
<svg version="1.0" xmlns="http://www.w3.org/2000/svg"
 width="512.000000pt" height="512.000000pt" viewBox="0 0 512.000000 512.000000"
 preserveAspectRatio="xMidYMid meet">
<metadata>
Created by potrace 1.14, written by Peter Selinger 2001-2017
</metadata>
<g transform="translate(0.000000,512.000000) scale(0.100000,-0.100000)"
fill="#000000" stroke="none">
<path d="M829 5106 c-125 -34 -224 -134 -259 -266 -7 -26 -12 -112 -12 -207
l0 -163 -101 0 c-119 0 -167 -17 -209 -72 -71 -93 -51 -221 46 -284 40 -27 81
-33 217 -34 l47 0 0 -233 0 -232 -102 -1 c-82 -1 -109 -5 -143 -23 -74 -37
-117 -118 -106 -198 7 -51 25 -84 67 -121 41 -36 90 -51 161 -50 28 0 67 0 87
-1 l37 -1 -2 -232 -2 -233 -106 0 c-114 -1 -131 -7 -192 -64 -31 -29 -59 -112
-52 -153 23 -126 104 -177 271 -174 l81 1 1 -232 c0 -172 -3 -233 -11 -234 -7
0 -55 -2 -107 -3 -103 -3 -137 -14 -181 -63 -37 -39 -49 -67 -53 -116 -6 -79
36 -152 107 -188 33 -17 61 -22 142 -23 l100 -1 2 -232 1 -233 -94 0 c-82 0
-103 -4 -150 -26 -111 -53 -143 -191 -67 -291 42 -55 75 -67 198 -73 l110 -5
2 -144 c2 -189 7 -224 42 -296 46 -92 136 -167 236 -194 11 -4 798 -6 1750 -6
l1730 0 55 26 c100 47 167 122 201 226 18 53 19 107 19 1079 l0 1022 86 1
c130 1 192 36 226 126 19 52 19 460 0 516 -16 45 -61 89 -115 111 -35 14 -38
17 -16 17 46 1 116 66 136 126 5 17 9 132 9 260 -1 223 -2 232 -25 270 -27 46
-48 63 -105 87 -23 9 -33 17 -22 17 52 2 126 72 145 137 4 16 7 130 6 254 -1
248 -5 267 -67 321 -40 35 -88 47 -179 46 l-77 -2 -4 102 c-4 91 -8 109 -38
168 -39 78 -100 137 -178 173 l-57 27 -1720 2 c-1341 1 -1730 -1 -1766 -11z"/>
</g>
</svg>
