<?xml version="1.0" standalone="no"?>
<!DOCTYPE svg PUBLIC "-//W3C//DTD SVG 20010904//EN"
 "http://www.w3.org/TR/2001/REC-SVG-20010904/DTD/svg10.dtd">
<svg version="1.0" xmlns="http://www.w3.org/2000/svg"
 width="700.000000pt" height="700.000000pt" viewBox="0 0 700.000000 700.000000"
 preserveAspectRatio="xMidYMid meet">
<metadata>
Created by potrace 1.14, written by Peter Selinger 2001-2017
</metadata>
<g transform="translate(0.000000,700.000000) scale(0.100000,-0.100000)"
fill="#000000" stroke="none">
<path d="M845 6980 c-213 -45 -375 -130 -528 -279 -136 -132 -232 -296 -285
-489 l-27 -97 -2 -2605 c-1 -2634 -1 -2629 30 -2765 39 -165 140 -340 276
-475 121 -120 238 -195 385 -246 l70 -24 2177 0 2178 0 72 26 c178 64 342 182
459 329 111 141 199 345 218 510 10 83 9 5209 -1 5255 -41 194 -100 329 -202
465 -126 166 -294 289 -485 355 -179 61 -63 58 -2245 58 -1922 0 -2004 0
-2090 -18z"/>
<path d="M6476 6278 c-57 -19 -130 -62 -166 -98 -28 -28 -75 -102 -96 -150
-18 -42 -19 -77 -22 -500 -2 -393 0 -463 14 -510 34 -118 114 -212 224 -264
60 -29 73 -31 170 -31 97 0 110 2 172 32 82 39 155 110 194 190 l29 58 0 505
0 505 -27 55 c-46 94 -121 159 -243 210 -52 22 -182 21 -249 -2z"/>
<path d="M6495 4241 c-108 -29 -221 -123 -267 -223 -15 -31 -31 -85 -35 -120
-10 -77 -9 -826 2 -893 10 -67 58 -159 110 -210 88 -87 183 -124 312 -120 66
2 92 7 147 33 83 39 162 116 202 197 l29 60 0 495 0 495 -32 65 c-40 82 -106
148 -188 190 -57 29 -76 33 -157 36 -51 2 -106 0 -123 -5z"/>
<path d="M6525 2214 c-79 -19 -192 -81 -223 -125 -7 -10 -19 -25 -27 -33 -25
-25 -62 -108 -74 -165 -8 -35 -11 -199 -11 -477 1 -456 3 -480 56 -571 52 -91
176 -182 269 -198 190 -32 370 56 451 222 l29 58 0 505 0 505 -29 56 c-51 102
-146 182 -251 212 -49 14 -151 20 -190 11z"/>
</g>
</svg>
